#!OML:ASF H:\Punching\Project 1\Capture day 1\Session 1\female.ASF
:FULLY-SPECIFIED
:DEGREES
1640
root 4.16182 14.5997 0.0668153 19.3023 18.6117 5.45492
lowerback -4.30121 -0.839163 -1.71782
upperback -7.64094 -1.05565 0.229712
thorax -5.4764 -0.405688 1.20256
lowerneck -15.6001 0.678554 6.52576
upperneck 32.2736 0.707127 -4.69326
head 13.5308 0.535053 -2.87738
rclavicle 3.98501e-015 -7.15625e-015
rhumerus 15.9272 15.5876 -64.902
rradius 131.195
rwrist -12.5548
rhand -33.2629 10.3334
rfingers 7.12502
rthumb -6.468 -19.5478
lclavicle 3.98501e-015 -7.15625e-015
lhumerus 8.72758 -23.3329 67.7739
lradius 138.739
lwrist 2.39979
lhand -21.0975 6.80377
lfingers 7.12502
lthumb 5.28016 36.718
rfemur -51.773 -8.45978 1.6143
rtibia 47.5575
rfoot -5.58961 -17.5548
rtoes 2.17887
lfemur -4.39167 -13.0156 -19.7053
ltibia 22.3066
lfoot -212.304 203.243
ltoes -8.33654
1641
root 4.17243 14.5997 0.0665367 19.2108 18.7261 5.31958
lowerback -4.43564 -0.846491 -1.6046
upperback -7.6808 -1.06289 0.232974
thorax -5.444 -0.415161 1.14095
lowerneck -15.6834 0.629271 6.42802
upperneck 32.5561 0.624456 -4.56926
head 13.6653 0.509017 -2.83262
rclavicle -3.16658e-015 -3.18055e-015
rhumerus 15.9037 15.7581 -64.9157
rradius 131.302
rwrist -12.9071
rhand -33.2568 10.395
rfingers 7.12502
rthumb -6.46214 -19.4864
lclavicle -3.16658e-015 -3.18055e-015
lhumerus 8.59616 -23.4023 68.0129
lradius 138.776
lwrist 2.31583
lhand -21.0768 6.83797
lfingers 7.12502
lthumb 5.30022 36.7517
rfemur -51.5464 -8.4408 1.67692
rtibia 47.3702
rfoot -5.51932 -17.5931
rtoes 1.87857
lfemur -4.35612 -13.0391 -19.6077
ltibia 22.3379
lfoot -212.354 203.339
ltoes -8.3047
1642
root 4.18305 14.6 0.0654543 19.1196 18.7939 5.18381
lowerback -4.54423 -0.846833 -1.49997
upperback -7.72179 -1.06146 0.239086
thorax -5.42764 -0.419624 1.08749
lowerneck -15.7634 0.592132 6.35008
upperneck 32.81 0.555838 -4.4556
head 13.7889 0.489711 -2.79225
rclavicle -2.77289e-014 -9.54166e-015
rhumerus 15.8819 15.9192 -64.9243
rradius 131.387
rwrist -13.162
rhand -33.2532 10.4242
rfingers 7.12502
rthumb -6.45867 -19.4574
lclavicle -2.77289e-014 -9.54166e-015
lhumerus 8.44068 -23.4464 68.2584
lradius 138.86
lwrist 2.32455
lhand -20.9588 6.90494
lfingers 7.12502
lthumb 5.41415 36.8158
rfemur -51.3829 -8.4376 1.76815
rtibia 47.2273
rfoot -5.42213 -17.6067
rtoes 1.61056
lfemur -4.30579 -13.0749 -19.5308
ltibia 22.3556
lfoot -212.411 203.474
ltoes -8.26323
1643
root 4.19361 14.6004 0.0635899 19.0187 18.8172 5.04918
lowerback -4.62109 -0.840424 -1.40541
upperback -7.76241 -1.05178 0.24567
thorax -5.42898 -0.419297 1.04063
lowerneck -15.8242 0.561889 6.28625
upperneck 33.0279 0.492061 -4.3399
head 13.8939 0.474039 -2.75138
rclavicle -3.09359e-015 1.51076e-014
rhumerus 15.8395 16.0584 -64.9354
rradius 131.447
rwrist -13.3068
rhand -33.2224 10.5471
rfingers 7.12502
rthumb -6.42897 -19.3353
lclavicle -3.09359e-015 1.51076e-014
lhumerus 8.25142 -23.4804 68.504
lradius 138.992
lwrist 2.41564
lhand -20.7644 6.99769
lfingers 7.12502
lthumb 5.60181 36.9036
rfemur -51.2552 -8.42982 1.87431
rtibia 47.1108
rfoot -5.29383 -17.6091
rtoes 1.37253
lfemur -4.22945 -13.1163 -19.4751
ltibia 22.3618
lfoot -212.475 203.631
ltoes -8.21831
1644
root 4.20376 14.6009 0.0610881 18.9006 18.7982 4.91213
lowerback -4.66602 -0.829019 -1.32377
upperback -7.79135 -1.03591 0.257064
thorax -5.43585 -0.415159 1.00639
lowerneck -15.8902 0.54229 6.23683
upperneck 33.2138 0.437879 -4.22513
head 13.9875 0.463536 -2.71088
rclavicle 3.70671e-014 -1.27222e-014
rhumerus 15.795 16.1765 -64.9436
rradius 131.484
rwrist -13.3247
rhand -33.2027 10.6389
rfingers 7.12502
rthumb -6.40993 -19.2441
lclavicle 3.70671e-014 -1.27222e-014
lhumerus 8.05164 -23.4919 68.7383
lradius 139.188
lwrist 2.63246
lhand -20.459 7.1661
lfingers 7.12502
lthumb 5.89671 37.064
rfemur -51.1406 -8.3904 1.98573
rtibia 47.0026
rfoot -5.14423 -17.621
rtoes 1.15495
lfemur -4.12173 -13.1546 -19.4344
ltibia 22.3598
lfoot -212.543 203.795
ltoes -8.16834
1645
root 4.21331 14.6014 0.0581669 18.7615 18.742 4.77406
lowerback -4.67658 -0.81287 -1.25521
upperback -7.81028 -1.01425 0.27051
thorax -5.45138 -0.407426 0.982039
lowerneck -15.948 0.530556 6.199
upperneck 33.3626 0.388168 -4.10307
head 14.0637 0.45673 -2.66743
rclavicle -6.73383e-015 4.77083e-015
rhumerus 15.7404 16.2748 -64.9546
rradius 131.497
rwrist -13.2205
rhand -33.1997 10.7041
rfingers 7.12502
rthumb -6.40702 -19.179
lclavicle -6.73383e-015 4.77083e-015
lhumerus 7.84381 -23.4931 68.9546
lradius 139.429
lwrist 2.94846
lhand -20.0843 7.38272
lfingers 7.12502
lthumb 6.25839 37.2703
rfemur -51.0216 -8.3091 2.09441
rtibia 46.8908
rfoot -4.97685 -17.6482
rtoes 0.962886
lfemur -3.98007 -13.1834 -19.4065
ltibia 22.3509
lfoot -212.611 203.954
ltoes -8.11649
1646
root 4.22203 14.6017 0.0551138 18.6036 18.6541 4.63923
lowerback -4.66345 -0.794483 -1.20647
upperback -7.81326 -0.989851 0.286145
thorax -5.46302 -0.397391 0.971235
lowerneck -16.0078 0.527234 6.1755
upperneck 33.4795 0.344168 -3.97905
head 14.127 0.453793 -2.62378
rclavicle 1.67725e-016 -3.02153e-014
rhumerus 15.6841 16.3602 -64.9653
rradius 131.498
rwrist -13.0186
rhand -33.2202 10.7281
rfingers 7.12502
rthumb -6.42677 -19.1544
lclavicle 1.67725e-016 -3.02153e-014
lhumerus 7.64639 -23.4793 69.1444
lradius 139.705
lwrist 3.3492
lhand -19.6487 7.65394
lfingers 7.12502
lthumb 6.67892 37.5286
rfemur -50.8918 -8.18354 2.19271
rtibia 46.7716
rfoot -4.80505 -17.6967
rtoes 0.78676
lfemur -3.80714 -13.1959 -19.3914
ltibia 22.3348
lfoot -212.675 204.1
ltoes -8.07157
1647
root 4.22988 14.6021 0.0522137 18.435 18.5402 4.51533
lowerback -4.63711 -0.778175 -1.18628
upperback -7.79197 -0.968207 0.305851
thorax -5.45568 -0.387426 0.980581
lowerneck -16.1045 0.537852 6.16313
upperneck 33.5733 0.313352 -3.85481
head 14.1896 0.457227 -2.57945
rclavicle 1.963e-014 -1.90833e-014
rhumerus 15.6589 16.4326 -64.9698
rradius 131.482
rwrist -12.7633
rhand -33.2565 10.7304
rfingers 7.12502
rthumb -6.46188 -19.1511
lclavicle 1.963e-014 -1.90833e-014
lhumerus 7.48747 -23.4416 69.3025
lradius 139.979
lwrist 3.7686
lhand -19.2048 7.94025
lfingers 7.12502
lthumb 7.10744 37.8009
rfemur -50.7547 -8.02092 2.27222
rtibia 46.6491
rfoot -4.63813 -17.7625
rtoes 0.631754
lfemur -3.60963 -13.1887 -19.393
ltibia 22.3084
lfoot -212.731 204.229
ltoes -8.03636
1648
root 4.23673 14.6026 0.0495346 18.2661 18.4041 4.41343
lowerback -4.59973 -0.765995 -1.2053
upperback -7.75572 -0.952005 0.326539
thorax -5.43797 -0.378226 1.01288
lowerneck -16.2188 0.558475 6.16415
upperneck 33.6422 0.292031 -3.73437
head 14.246 0.465283 -2.53685
rclavicle -3.06253e-014 -1.59028e-014
rhumerus 15.6609 16.4913 -64.9558
rradius 131.458
rwrist -12.5238
rhand -33.2855 10.7357
rfingers 7.12502
rthumb -6.48986 -19.1449
lclavicle -3.06253e-014 -1.59028e-014
lhumerus 7.36001 -23.3754 69.4312
lradius 140.264
lwrist 4.23056
lhand -18.7136 8.26098
lfingers 7.12502
lthumb 7.58162 38.1051
rfemur -50.6188 -7.82435 2.3191
rtibia 46.5313
rfoot -4.48425 -17.8474
rtoes 0.502822
lfemur -3.3965 -13.1598 -19.4189
ltibia 22.2677
lfoot -212.771 204.343
ltoes -8.00575
1649
root 4.24276 14.6031 0.0473633 18.1061 18.2467 4.34183
lowerback -4.56265 -0.756966 -1.26744
upperback -7.70907 -0.939898 0.343348
thorax -5.40845 -0.369042 1.06518
lowerneck -16.3447 0.584347 6.17565
upperneck 33.6936 0.274556 -3.61715
head 14.2976 0.475444 -2.49631
rclavicle 2.43387e-014 3.18055e-015
rhumerus 15.6805 16.5391 -64.9317
rradius 131.432
rwrist -12.3438
rhand -33.2989 10.7371
rfingers 7.12502
rthumb -6.50279 -19.1431
lclavicle 2.43387e-014 3.18055e-015
lhumerus 7.26082 -23.2964 69.534
lradius 140.526
lwrist 4.6685
lhand -18.2385 8.57633
lfingers 7.12502
lthumb 8.04014 38.4034
rfemur -50.4948 -7.60482 2.32579
rtibia 46.4266
rfoot -4.34773 -17.9417
rtoes 0.393849
lfemur -3.17375 -13.114 -19.4779
ltibia 22.2097
lfoot -212.791 204.452
ltoes -7.98664
1650
root 4.24813 14.6036 0.0456363 17.9621 18.0721 4.30628
lowerback -4.52862 -0.751262 -1.37173
upperback -7.66086 -0.932202 0.35205
thorax -5.37508 -0.360114 1.13258
lowerneck -16.4618 0.613113 6.20035
upperneck 33.7272 0.259076 -3.50576
head 14.3394 0.487043 -2.45951
rclavicle 2.42145e-014 1.59028e-014
rhumerus 15.7 16.5779 -64.8977
rradius 131.412
rwrist -12.2591
rhand -33.3022 10.7033
rfingers 7.12502
rthumb -6.50597 -19.1767
lclavicle 2.42145e-014 1.59028e-014
lhumerus 7.18083 -23.2137 69.6144
lradius 140.761
lwrist 5.0643
lhand -17.7879 8.88238
lfingers 7.12502
lthumb 8.47504 38.6923
rfemur -50.3883 -7.3679 2.28459
rtibia 46.3398
rfoot -4.23255 -18.0441
rtoes 0.307333
lfemur -2.94854 -13.0531 -19.5738
ltibia 22.1333
lfoot -212.791 204.557
ltoes -7.97348
1651
root 4.25316 14.6039 0.0441871 17.8381 17.8824 4.30902
lowerback -4.49802 -0.74755 -1.51121
upperback -7.6259 -0.927348 0.346733
thorax -5.35372 -0.350957 1.20518
lowerneck -16.5273 0.638863 6.24242
upperneck 33.7419 0.239622 -3.40229
head 14.3609 0.497991 -2.42866
rclavicle -6.17475e-015 2.54444e-014
rhumerus 15.6857 16.6138 -64.8652
rradius 131.406
rwrist -12.2886
rhand -33.2906 10.6601
rfingers 7.12502
rthumb -6.49477 -19.2203
lclavicle -6.17475e-015 2.54444e-014
lhumerus 7.09075 -23.1534 69.6776
lradius 140.95
lwrist 5.38267
lhand -17.4084 9.14186
lfingers 7.12502
lthumb 8.84126 38.9367
rfemur -50.3034 -7.12621 2.19611
rtibia 46.2714
rfoot -4.12934 -18.1429
rtoes 0.247021
lfemur -2.72624 -12.9815 -19.7086
ltibia 22.0421
lfoot -212.776 204.655
ltoes -7.94843
1652
root 4.25806 14.604 0.0429559 17.7342 17.6825 4.34691
lowerback -4.47751 -0.746225 -1.67844
upperback -7.60483 -0.92576 0.328547
thorax -5.34133 -0.342146 1.27994
lowerneck -16.534 0.660712 6.30009
upperneck 33.7405 0.21765 -3.31052
head 14.3616 0.508224 -2.40485
rclavicle 4.5472e-015 -1.59028e-014
rhumerus 15.6346 16.6527 -64.8336
rradius 131.418
rwrist -12.4184
rhand -33.265 10.5939
rfingers 7.12502
rthumb -6.47005 -19.2873
lclavicle 4.5472e-015 -1.59028e-014
lhumerus 6.99032 -23.1156 69.7273
lradius 141.104
lwrist 5.64935
lhand -17.0816 9.38598
lfingers 7.12502
lthumb 9.15656 39.1672
rfemur -50.2376 -6.8838 2.06398
rtibia 46.2166
rfoot -4.03627 -18.2391
rtoes 0.19386
lfemur -2.51311 -12.8977 -19.8766
ltibia 21.9431
lfoot -212.745 204.741
ltoes -7.92041
